<mxfile host="app.diagrams.net" modified="2023-11-26T13:59:17.451Z" agent="Mozilla/5.0 (Windows NT 10.0; Win64; x64) AppleWebKit/537.36 (KHTML, like Gecko) Chrome/119.0.0.0 Safari/537.36" etag="ZOXl8ZVTbpwBzhwVgLJ4" version="22.1.4" type="device">
  <diagram name="Pagina-1" id="uU6Ghi-izgu4RyXmWUg7">
    <mxGraphModel dx="838" dy="880" grid="1" gridSize="10" guides="1" tooltips="1" connect="1" arrows="1" fold="1" page="1" pageScale="1" pageWidth="827" pageHeight="1169" math="0" shadow="0">
      <root>
        <mxCell id="0" />
        <mxCell id="1" parent="0" />
        <mxCell id="IV13zOwFfKd6qewWKF9J-1" value="" style="rounded=0;whiteSpace=wrap;html=1;" vertex="1" parent="1">
          <mxGeometry x="300" y="290" width="270" height="250" as="geometry" />
        </mxCell>
        <mxCell id="IV13zOwFfKd6qewWKF9J-2" value="CodeKataBattle system" style="text;html=1;strokeColor=none;fillColor=none;align=center;verticalAlign=middle;whiteSpace=wrap;rounded=0;fontSize=26;fontStyle=1" vertex="1" parent="1">
          <mxGeometry x="405" y="320" width="60" height="30" as="geometry" />
        </mxCell>
        <mxCell id="IV13zOwFfKd6qewWKF9J-3" value="Send info about commits" style="ellipse;whiteSpace=wrap;html=1;fontSize=14;" vertex="1" parent="1">
          <mxGeometry x="325" y="380" width="140" height="60" as="geometry" />
        </mxCell>
        <mxCell id="IV13zOwFfKd6qewWKF9J-4" value="Inform of a new push" style="ellipse;whiteSpace=wrap;html=1;fontSize=14;" vertex="1" parent="1">
          <mxGeometry x="325" y="460" width="140" height="60" as="geometry" />
        </mxCell>
        <mxCell id="IV13zOwFfKd6qewWKF9J-8" style="edgeStyle=orthogonalEdgeStyle;rounded=0;orthogonalLoop=1;jettySize=auto;html=1;exitX=0.5;exitY=0.5;exitDx=0;exitDy=0;exitPerimeter=0;entryX=0;entryY=0.5;entryDx=0;entryDy=0;" edge="1" parent="1" source="IV13zOwFfKd6qewWKF9J-5" target="IV13zOwFfKd6qewWKF9J-3">
          <mxGeometry relative="1" as="geometry">
            <Array as="points">
              <mxPoint x="240" y="440" />
              <mxPoint x="240" y="410" />
            </Array>
          </mxGeometry>
        </mxCell>
        <mxCell id="IV13zOwFfKd6qewWKF9J-10" value="+initiate" style="edgeLabel;html=1;align=center;verticalAlign=middle;resizable=0;points=[];" vertex="1" connectable="0" parent="IV13zOwFfKd6qewWKF9J-8">
          <mxGeometry x="0.3655" relative="1" as="geometry">
            <mxPoint as="offset" />
          </mxGeometry>
        </mxCell>
        <mxCell id="IV13zOwFfKd6qewWKF9J-9" style="edgeStyle=orthogonalEdgeStyle;rounded=0;orthogonalLoop=1;jettySize=auto;html=1;exitX=0.5;exitY=0.5;exitDx=0;exitDy=0;exitPerimeter=0;entryX=0;entryY=0.5;entryDx=0;entryDy=0;" edge="1" parent="1" source="IV13zOwFfKd6qewWKF9J-5" target="IV13zOwFfKd6qewWKF9J-4">
          <mxGeometry relative="1" as="geometry">
            <Array as="points">
              <mxPoint x="240" y="440" />
              <mxPoint x="240" y="490" />
            </Array>
          </mxGeometry>
        </mxCell>
        <mxCell id="IV13zOwFfKd6qewWKF9J-12" value="+initiate" style="edgeLabel;html=1;align=center;verticalAlign=middle;resizable=0;points=[];" vertex="1" connectable="0" parent="IV13zOwFfKd6qewWKF9J-9">
          <mxGeometry x="0.396" relative="1" as="geometry">
            <mxPoint x="3" as="offset" />
          </mxGeometry>
        </mxCell>
        <mxCell id="IV13zOwFfKd6qewWKF9J-5" value="GitHub" style="shape=umlActor;verticalLabelPosition=bottom;verticalAlign=top;html=1;outlineConnect=0;" vertex="1" parent="1">
          <mxGeometry x="170" y="410" width="30" height="60" as="geometry" />
        </mxCell>
        <mxCell id="IV13zOwFfKd6qewWKF9J-13" value="WIP" style="text;html=1;strokeColor=none;fillColor=none;align=center;verticalAlign=middle;whiteSpace=wrap;rounded=0;fontSize=50;fontStyle=3" vertex="1" parent="1">
          <mxGeometry x="260" y="270" width="60" height="30" as="geometry" />
        </mxCell>
      </root>
    </mxGraphModel>
  </diagram>
</mxfile>
